<svg xmlns="http://www.w3.org/2000/svg" width="805" height="600"><rect width="805" height="600" x="0" y="0" fill="#FFFFFF" id="backgorund"/><g id="viz"><clipPath id="serieClipPath"><rect x="-50" y="-10" width="805" height="600"/></clipPath><g transform="translate(0,0)"><g transform="translate(50,10)" clip-path="url(#serieClipPath)"><g id="axis"><g transform="translate(0,570)" fill="none" font-size="10" font-family="sans-serif" text-anchor="middle"><path class="domain" stroke="currentColor" d="M0,6V0H740V6"/><g class="tick" opacity="1" transform="translate(0,0)"><line stroke="currentColor" y2="6"/><text fill="currentColor" y="9" dy="0.71em">Jan 31</text></g><g class="tick" opacity="1" transform="translate(82.22222222222221,0)"><line stroke="currentColor" y2="6"/><text fill="currentColor" y="9" dy="0.71em">Feb 07</text></g><g class="tick" opacity="1" transform="translate(164.44444444444443,0)"><line stroke="currentColor" y2="6"/><text fill="currentColor" y="9" dy="0.71em">Feb 14</text></g><g class="tick" opacity="1" transform="translate(246.66666666666666,0)"><line stroke="currentColor" y2="6"/><text fill="currentColor" y="9" dy="0.71em">Feb 21</text></g><g class="tick" opacity="1" transform="translate(328.88888888888886,0)"><line stroke="currentColor" y2="6"/><text fill="currentColor" y="9" dy="0.71em">Feb 28</text></g><g class="tick" opacity="1" transform="translate(411.11111111111114,0)"><line stroke="currentColor" y2="6"/><text fill="currentColor" y="9" dy="0.71em">Mar 06</text></g><g class="tick" opacity="1" transform="translate(493.3333333333333,0)"><line stroke="currentColor" y2="6"/><text fill="currentColor" y="9" dy="0.71em">Mar 13</text></g><g class="tick" opacity="1" transform="translate(575.5555555555555,0)"><line stroke="currentColor" y2="6"/><text fill="currentColor" y="9" dy="0.71em">Mar 20</text></g><g class="tick" opacity="1" transform="translate(657.7777777777777,0)"><line stroke="currentColor" y2="6"/><text fill="currentColor" y="9" dy="0.71em">Mar 27</text></g><g class="tick" opacity="1" transform="translate(740,0)"><line stroke="currentColor" y2="6"/><text fill="currentColor" y="9" dy="0.71em">Apr 03</text></g><text x="740" dy="-5" text-anchor="end" style="font-family: Arial, sans-serif; font-size: 12px; fill: rgb(123, 123, 123); font-weight: bold;">日期</text></g><g transform="translate(0,0)" fill="none" font-size="10" font-family="sans-serif" text-anchor="end"><path class="domain" stroke="currentColor" d="M0,570V0"/><g class="tick" opacity="1" transform="translate(0,570)"><line stroke="currentColor" x2="-6"/><text fill="currentColor" x="-9" dy="0.32em">25</text></g><g class="tick" opacity="1" transform="translate(0,513)"><line stroke="currentColor" x2="-6"/><text fill="currentColor" x="-9" dy="0.32em">30</text></g><g class="tick" opacity="1" transform="translate(0,456)"><line stroke="currentColor" x2="-6"/><text fill="currentColor" x="-9" dy="0.32em">35</text></g><g class="tick" opacity="1" transform="translate(0,399)"><line stroke="currentColor" x2="-6"/><text fill="currentColor" x="-9" dy="0.32em">40</text></g><g class="tick" opacity="1" transform="translate(0,342)"><line stroke="currentColor" x2="-6"/><text fill="currentColor" x="-9" dy="0.32em">45</text></g><g class="tick" opacity="1" transform="translate(0,285)"><line stroke="currentColor" x2="-6"/><text fill="currentColor" x="-9" dy="0.32em">50</text></g><g class="tick" opacity="1" transform="translate(0,228)"><line stroke="currentColor" x2="-6"/><text fill="currentColor" x="-9" dy="0.32em">55</text></g><g class="tick" opacity="1" transform="translate(0,171.00000000000003)"><line stroke="currentColor" x2="-6"/><text fill="currentColor" x="-9" dy="0.32em">60</text></g><g class="tick" opacity="1" transform="translate(0,113.99999999999997)"><line stroke="currentColor" x2="-6"/><text fill="currentColor" x="-9" dy="0.32em">65</text></g><g class="tick" opacity="1" transform="translate(0,56.999999999999986)"><line stroke="currentColor" x2="-6"/><text fill="currentColor" x="-9" dy="0.32em">70</text></g><g class="tick" opacity="1" transform="translate(0,0)"><line stroke="currentColor" x2="-6"/><text fill="currentColor" x="-9" dy="0.32em">75</text></g><text x="4" text-anchor="start" dominant-baseline="hanging" style="font-family: Arial, sans-serif; font-size: 12px; fill: rgb(123, 123, 123); font-weight: bold;">開盤價</text></g></g><g id="viz"><g><path d="M11.746031746031745,557.46C17.619047619047617,557.46,17.619047619047617,558.6,23.49206349206349,558.6C29.36507936507936,558.6,29.36507936507936,558.03,35.238095238095234,558.03C52.85714285714285,558.03,52.85714285714285,554.61,70.47619047619047,554.61C76.34920634920634,554.61,76.34920634920634,550.05,82.22222222222221,550.05C88.09523809523809,550.05,88.09523809523809,544.92,93.96825396825396,544.92C99.84126984126983,544.92,99.84126984126983,484.5,105.71428571428571,484.5C111.58730158730158,484.5,111.58730158730158,447.45000000000005,117.46031746031746,447.45000000000005C135.07936507936506,447.45000000000005,135.07936507936506,462.27,152.69841269841268,462.27C158.57142857142856,462.27,158.57142857142856,405.84,164.44444444444443,405.84C170.3174603174603,405.84,170.3174603174603,405.84,176.19047619047618,405.84C182.06349206349205,405.84,182.06349206349205,389.88000000000005,187.93650793650792,389.88000000000005C193.8095238095238,389.88000000000005,193.8095238095238,389.88000000000005,199.68253968253967,389.88000000000005C217.3015873015873,389.88000000000005,217.3015873015873,351.11999999999995,234.9206349206349,351.11999999999995C240.79365079365078,351.11999999999995,240.79365079365078,340.86,246.66666666666666,340.86C252.53968253968253,340.86,252.53968253968253,362.5199999999999,258.4126984126984,362.5199999999999C264.2857142857142,362.5199999999999,264.2857142857142,338.58000000000004,270.1587301587301,338.58000000000004C276.031746031746,338.58000000000004,276.031746031746,345.4199999999999,281.90476190476187,345.4199999999999C346.5079365079365,345.4199999999999,346.5079365079365,280.44,411.11111111111114,280.44C416.984126984127,280.44,416.984126984127,273.59999999999997,422.85714285714283,273.59999999999997C428.73015873015873,273.59999999999997,428.73015873015873,262.2,434.60317460317464,262.2C440.4761904761905,262.2,440.4761904761905,171.00000000000003,446.3492063492063,171.00000000000003C452.22222222222223,171.00000000000003,452.22222222222223,135.66,458.09523809523813,135.66C475.7142857142857,135.66,475.7142857142857,176.70000000000002,493.3333333333333,176.70000000000002C499.2063492063492,176.70000000000002,499.2063492063492,168.71999999999997,505.0793650793651,168.71999999999997C510.95238095238096,168.71999999999997,510.95238095238096,151.61999999999995,516.8253968253968,151.61999999999995C522.6984126984127,151.61999999999995,522.6984126984127,193.79999999999998,528.5714285714286,193.79999999999998C534.4444444444443,193.79999999999998,534.4444444444443,216.6,540.3174603174602,216.6C557.936507936508,216.6,557.936507936508,116.28000000000004,575.5555555555555,116.28000000000004C581.4285714285713,116.28000000000004,581.4285714285713,70.68000000000006,587.3015873015872,70.68000000000006C593.1746031746031,70.68000000000006,593.1746031746031,60.41999999999999,599.047619047619,60.41999999999999C604.9206349206349,60.41999999999999,604.9206349206349,55.86000000000005,610.7936507936507,55.86000000000005C616.6666666666666,55.86000000000005,616.6666666666666,58.13999999999992,622.5396825396825,58.13999999999992C640.1587301587301,58.13999999999992,640.1587301587301,62.699999999999996,657.7777777777777,62.699999999999996C663.6507936507936,62.699999999999996,663.6507936507936,77.51999999999994,669.5238095238095,77.51999999999994C675.3968253968253,77.51999999999994,675.3968253968253,93.48000000000002,681.2698412698412,93.48000000000002C687.1428571428571,93.48000000000002,687.1428571428571,80.93999999999994,693.015873015873,80.93999999999994C698.8888888888889,80.93999999999994,698.8888888888889,77.51999999999994,704.7619047619047,77.51999999999994" stroke="#1f77b4" fill="none"/><text font-family="sans-serif" font-size="10" class="labels" x="610.7936507936507" y="55.86000000000005" dx="0" dy="-4" text-anchor="middle"/></g></g></g><text y="4" x="4" style="font-family: Arial, sans-serif; font-size: 12px; fill: black; font-weight: bold; dominant-baseline: hanging;"/></g><g id="grid"><rect x="0" y="0" width="805" height="600" fill="none" stroke="#ccc"/></g></g></svg>